<svg xmlns="http://www.w3.org/2000/svg" viewBox="0 0 366 199"><defs><style>.a{fill:#005293;}.b{fill:#fff;}</style></defs><title>logo</title><path class="a" d="M183,196.56a23.73,23.73,0,0,1-5.88-.67L10.55,151.38A10.5,10.5,0,0,1,3,141.52v-84a10.5,10.5,0,0,1,7.55-9.85L177.13,3.1A23.41,23.41,0,0,1,183,2.44a23.74,23.74,0,0,1,5.88.67L355.46,47.62A10.5,10.5,0,0,1,363,57.48v84a10.5,10.5,0,0,1-7.55,9.85L188.87,195.9A23.55,23.55,0,0,1,183,196.56Z"/><path class="b" d="M183,4.37a21.64,21.64,0,0,1,5.37.6L354.93,49.49a8.55,8.55,0,0,1,6.07,8v84a8.55,8.55,0,0,1-6.08,8L188.36,194a21.44,21.44,0,0,1-5.34.6,21.82,21.82,0,0,1-5.39-.6L11.08,149.51a8.56,8.56,0,0,1-6.08-8v-84a8.55,8.55,0,0,1,6.08-8L177.65,5A21.74,21.74,0,0,1,183,4.4m0-3.9a25.2,25.2,0,0,0-6.36.73L10,45.75A12.52,12.52,0,0,0,1,57.48v84a12.52,12.52,0,0,0,9,11.73l166.55,44.52a25.57,25.57,0,0,0,6.41.73,25.22,25.22,0,0,0,6.34-.73L356,153.25a12.53,12.53,0,0,0,9-11.72v-84a12.52,12.52,0,0,0-9-11.72L189.45,1.23A25.72,25.72,0,0,0,183,.5Z"/><path class="b" d="M183.22,190.94a21.89,21.89,0,0,1-5.3-.58L14.37,147.61A8.75,8.75,0,0,1,8,139.7V59.3c0-3.36,2.91-7,6.43-7.91L177.88,8.64a25.21,25.21,0,0,1,10.81,0L351.44,51.39c3.26.85,5.56,4.18,5.56,7.91v80.4c0,3.74-2.29,7.06-5.52,7.91l-163,42.75a21.65,21.65,0,0,1-5.26.58ZM183.27,11a19.63,19.63,0,0,0-4.66.49L15.2,54.28a5.88,5.88,0,0,0-4.2,5V139.7a5.84,5.84,0,0,0,4.13,5L178.7,187.45a21.13,21.13,0,0,0,9.07,0L350.71,144.7c1.91-.5,3.28-2.66,3.28-5V59.3c0-2.35-1.39-4.51-3.33-5L187.89,11.53A19.35,19.35,0,0,0,183.27,11Z"/><path class="b" d="M152.61,44.88v2h-5.83v2.37h5.35v1.89h-5.35v2.71h6v2H144.4v-11Zm5.18,8.33a1.75,1.75,0,0,0,.53.63,2.3,2.3,0,0,0,.78.36,3.69,3.69,0,0,0,.93.12,4.79,4.79,0,0,0,.7,0,2.41,2.41,0,0,0,.7-.21,1.52,1.52,0,0,0,.54-.43,1.07,1.07,0,0,0,.22-.69,1,1,0,0,0-.29-.73,2.27,2.27,0,0,0-.75-.46,7.47,7.47,0,0,0-1.05-.33l-1.19-.31a10.49,10.49,0,0,1-1.21-.38,4.12,4.12,0,0,1-1.05-.58,2.73,2.73,0,0,1-.75-.89,2.7,2.7,0,0,1-.29-1.29,2.89,2.89,0,0,1,.36-1.48,3.29,3.29,0,0,1,1-1,4.14,4.14,0,0,1,1.33-.62,5.66,5.66,0,0,1,1.49-.2,7,7,0,0,1,1.66.19,4.15,4.15,0,0,1,1.42.63,3.18,3.18,0,0,1,1,1.11,3.4,3.4,0,0,1,.36,1.63h-2.35a2,2,0,0,0-.21-.82,1.37,1.37,0,0,0-.47-.51,2,2,0,0,0-.67-.26,4.15,4.15,0,0,0-.83-.08,2.84,2.84,0,0,0-.59.06,1.58,1.58,0,0,0-.53.22,1.33,1.33,0,0,0-.39.39,1.23,1.23,0,0,0,0,1.12,1.1,1.1,0,0,0,.49.37,6.18,6.18,0,0,0,1,.34l1.68.43q.31.06.86.22a4.13,4.13,0,0,1,1.09.52,3.3,3.3,0,0,1,.94,1,2.71,2.71,0,0,1,.39,1.52,3.38,3.38,0,0,1-.29,1.41,3.06,3.06,0,0,1-.87,1.12A4.21,4.21,0,0,1,162,56a6.8,6.8,0,0,1-2,.26,7,7,0,0,1-1.77-.22,4.46,4.46,0,0,1-1.52-.7,3.48,3.48,0,0,1-1-1.22,3.65,3.65,0,0,1-.37-1.76h2.35a2,2,0,0,0,.09.84Zm8.9-6.28v-2h9v2h-3.31v9H170v-9Zm11.49,6.62v2.38h-2.43V53.55Zm10.66,2.38v-7h-2.72V47.25a5.21,5.21,0,0,0,1.11-.09,2.88,2.88,0,0,0,1-.36,2.35,2.35,0,0,0,.72-.67,2.39,2.39,0,0,0,.39-1H191v10.8Zm8.82-1.84a1.28,1.28,0,0,0,1,.4,1.42,1.42,0,0,0,1-.35,2.59,2.59,0,0,0,.62-.85,4.35,4.35,0,0,0,.33-1.08q.09-.5.13-1a2.63,2.63,0,0,1-1.05.93,3.4,3.4,0,0,1-3.88-.81,3.14,3.14,0,0,1-.63-1.13,4.22,4.22,0,0,1-.2-1.28,4.38,4.38,0,0,1,.27-1.56,3.65,3.65,0,0,1,2-2.1A3.77,3.77,0,0,1,198.8,45a3.85,3.85,0,0,1,2,.49,3.76,3.76,0,0,1,1.2,1.22,5.36,5.36,0,0,1,.67,1.8,11.17,11.17,0,0,1,.19,2,8.92,8.92,0,0,1-.23,2,5.87,5.87,0,0,1-.74,1.82,4.11,4.11,0,0,1-1.32,1.31,3.64,3.64,0,0,1-2,.5,4.24,4.24,0,0,1-1.3-.19,3.14,3.14,0,0,1-1.07-.58,3.09,3.09,0,0,1-.76-.94,3.75,3.75,0,0,1-.39-1.27h2.09a1.86,1.86,0,0,0,.52,1Zm1.86-3.53a1.56,1.56,0,0,0,.54-.44,1.94,1.94,0,0,0,.32-.64,2.68,2.68,0,0,0,.11-.77,2.39,2.39,0,0,0-.12-.73,2,2,0,0,0-.34-.65,1.69,1.69,0,0,0-.55-.46,1.57,1.57,0,0,0-.74-.17,1.42,1.42,0,0,0-.7.17,1.69,1.69,0,0,0-.53.45,1.93,1.93,0,0,0-.32.63,2.46,2.46,0,0,0-.11.73,2.76,2.76,0,0,0,.1.75,2.06,2.06,0,0,0,.3.65,1.55,1.55,0,0,0,.52.46,1.48,1.48,0,0,0,.74.18,1.71,1.71,0,0,0,.77-.17Zm8.85,5.37v-7h-2.72V47.25a5.2,5.2,0,0,0,1.11-.09,2.88,2.88,0,0,0,1-.36,2.36,2.36,0,0,0,.72-.67,2.4,2.4,0,0,0,.39-1h1.75v10.8Zm11.26-9a1.28,1.28,0,0,0-1-.4,1.43,1.43,0,0,0-1,.35,2.53,2.53,0,0,0-.63.85,4.59,4.59,0,0,0-.34,1.08,6.79,6.79,0,0,0-.12,1,2.63,2.63,0,0,1,1.05-.93,3.4,3.4,0,0,1,3.88.81,3.14,3.14,0,0,1,.63,1.13,4.26,4.26,0,0,1,.2,1.28,4.37,4.37,0,0,1-.27,1.55,3.72,3.72,0,0,1-.77,1.25,3.58,3.58,0,0,1-1.2.84,4.31,4.31,0,0,1-3.57-.19,3.75,3.75,0,0,1-1.28-1.28,5.28,5.28,0,0,1-.67-1.79,11.12,11.12,0,0,1-.19-2,8.93,8.93,0,0,1,.23-2,5.87,5.87,0,0,1,.74-1.82,4.19,4.19,0,0,1,1.32-1.32,3.59,3.59,0,0,1,2-.51,4.08,4.08,0,0,1,1.3.2,3.33,3.33,0,0,1,1.07.58,3,3,0,0,1,.76.94,3.77,3.77,0,0,1,.39,1.28h-2.09a1.86,1.86,0,0,0-.44-.9Zm-1.85,3.53a1.55,1.55,0,0,0-.55.44,1.92,1.92,0,0,0-.32.64,2.64,2.64,0,0,0-.11.77,2.39,2.39,0,0,0,.12.73,2,2,0,0,0,.34.65,1.67,1.67,0,0,0,.55.46,1.57,1.57,0,0,0,.74.17,1.41,1.41,0,0,0,.7-.17,1.72,1.72,0,0,0,.52-.45,1.93,1.93,0,0,0,.32-.63,2.46,2.46,0,0,0,.11-.73,2.8,2.8,0,0,0-.1-.75,2.09,2.09,0,0,0-.3-.65,1.55,1.55,0,0,0-.52-.46,1.48,1.48,0,0,0-.74-.18,1.72,1.72,0,0,0-.76.17Zm-81.15,89.74a5.25,5.25,0,0,0-.45-1.18,3.23,3.23,0,0,0-1.8-1.54,4.2,4.2,0,0,0-1.41-.22,4.13,4.13,0,0,0-2,.47,4,4,0,0,0-1.39,1.27,5.72,5.72,0,0,0-.79,1.8,8.37,8.37,0,0,0,0,4.12,5.72,5.72,0,0,0,.79,1.81A4,4,0,0,0,131,148a4.12,4.12,0,0,0,2,.48,3.67,3.67,0,0,0,1.53-.3,3.4,3.4,0,0,0,1.13-.82,3.88,3.88,0,0,0,.74-1.23,5.87,5.87,0,0,0,.35-1.51h2.52a7,7,0,0,1-.57,2.41,5.92,5.92,0,0,1-1.31,1.89,5.78,5.78,0,0,1-1.94,1.23,6.72,6.72,0,0,1-2.45.43,7,7,0,0,1-3-.61,6.51,6.51,0,0,1-2.22-1.66,7.43,7.43,0,0,1-1.39-2.45,9.4,9.4,0,0,1,0-6,7.43,7.43,0,0,1,1.39-2.45,6.63,6.63,0,0,1,2.22-1.67,6.85,6.85,0,0,1,3-.62,7.79,7.79,0,0,1,2.33.34,6,6,0,0,1,1.93,1,5.15,5.15,0,0,1,1.35,1.58,5.49,5.49,0,0,1,.64,2.12Zm13.17-5a6.85,6.85,0,0,1,3,.62,6.63,6.63,0,0,1,2.22,1.67,7.43,7.43,0,0,1,1.39,2.45,9.4,9.4,0,0,1,0,6,7.43,7.43,0,0,1-1.39,2.45A6.51,6.51,0,0,1,152.8,150a7.5,7.5,0,0,1-5.92,0,6.51,6.51,0,0,1-2.22-1.66,7.43,7.43,0,0,1-1.39-2.45,9.4,9.4,0,0,1,0-6,7.43,7.43,0,0,1,1.39-2.45,6.63,6.63,0,0,1,2.22-1.67A6.85,6.85,0,0,1,149.8,135.18Zm0,2.1a4.13,4.13,0,0,0-2,.47,4,4,0,0,0-1.39,1.27,5.72,5.72,0,0,0-.79,1.8,8.37,8.37,0,0,0,0,4.12,5.72,5.72,0,0,0,.79,1.81A4,4,0,0,0,147.8,148a4.58,4.58,0,0,0,4.06,0,4,4,0,0,0,1.39-1.27A5.73,5.73,0,0,0,154,145a8.37,8.37,0,0,0,0-4.12,5.73,5.73,0,0,0-.79-1.8,4,4,0,0,0-1.39-1.27A4.13,4.13,0,0,0,149.8,137.28Zm11.39-1.75h3.63l4.06,11.53,4-11.53h3.59v14.73H174V138.89l-4.08,11.36H167.8l-4.08-11.36v11.36h-2.45Zm20.37,0h6.5a6.17,6.17,0,0,1,2.56.45,4,4,0,0,1,1.53,1.13,3.87,3.87,0,0,1,.73,1.48,6.33,6.33,0,0,1,.19,1.49,6.2,6.2,0,0,1-.19,1.47,3.88,3.88,0,0,1-.73,1.47,4,4,0,0,1-1.53,1.12,6.28,6.28,0,0,1-2.56.44h-3.92v5.65h-2.58Zm2.58,7h3.77a3.35,3.35,0,0,0,.89-.12,2.54,2.54,0,0,0,.84-.4,2.08,2.08,0,0,0,.62-.74,2.56,2.56,0,0,0,.24-1.17,3,3,0,0,0-.21-1.2,1.93,1.93,0,0,0-.56-.75,2,2,0,0,0-.8-.38,4.36,4.36,0,0,0-1-.1h-3.82Zm16-7h2.74l5.67,14.73h-2.76l-1.38-3.9h-5.88l-1.38,3.9h-2.66Zm-.91,8.87h4.5l-2.21-6.33h-.06ZM212,135.53h2.72l6.72,10.85V135.53h2.45v14.73H221.2l-6.7-10.83h-.06v10.83H212Zm20.92,8.95-5.53-9h3l3.9,6.6,3.84-6.6H241l-5.51,9v5.78h-2.58ZM31.84,76.8h6.81v37.13h11.2v6.19h-18Zm21,0h6.81v43.32H52.81ZM70.63,88.75v31.37H64.51V76.8H73l7,25.93V76.8h6.1v43.32h-7ZM97.8,95.06h9.34v6.19H97.8v12.69h11.76v6.19H91V76.8h18.56V83H97.8Zm24.87,7.79-2.1,4v13.3h-6.81V76.8h6.81V95.68l8.91-18.87h6.81l-9.47,19.31,9.47,24h-7Zm46.47-15.34v5.63c0,6.93-3.34,10.71-10.15,10.71h-3.22v16.28H149V76.8h10C165.8,76.8,169.14,80.58,169.14,87.51ZM155.78,83V97.66H159c2.17,0,3.34-1,3.34-4.08v-6.5C162.33,84,161.16,83,159,83Zm16.82-6.2h6.81v37.13h11.2v6.19h-18Zm27.48,0v33.42c0,3.09,1.36,4.21,3.53,4.21s3.53-1.11,3.53-4.21V76.8h6.44v33c0,6.93-3.47,10.89-10.15,10.89s-10.15-4-10.15-10.89v-33Zm32.55,30.76,4.64-30.75h9.47v43.32H240.3V89.05l-4.7,31.06h-6.44l-5.07-30.63v30.63h-5.94V76.8h9.47ZM272,86.77v1.55c0,4.46-1.36,7.3-4.39,8.73,3.65,1.42,5.07,4.7,5.07,9.28v3.53c0,6.68-3.53,10.27-10.33,10.27h-10.7V76.8H262C269,76.8,272,80.08,272,86.77ZM258.49,83V94.44h2.66c2.54,0,4.08-1.11,4.08-4.58V87.45c0-3.09-1-4.46-3.46-4.46Zm0,17.64v13.3h3.9c2.29,0,3.53-1.05,3.53-4.27V105.9c0-4-1.3-5.26-4.39-5.26ZM276.81,76.8h6.81v43.32h-6.81Zm17.82,11.95v31.37H288.5V76.8H297l7,25.93V76.8h6.07v43.32h-7ZM325.19,96h9.53v13.74c0,6.93-3.47,10.89-10.15,10.89s-10.15-4-10.15-10.89V87.2c0-6.93,3.47-10.89,10.15-10.89s10.15,4,10.15,10.89v4.21h-6.44V86.77c0-3.09-1.36-4.27-3.53-4.27s-3.53,1.18-3.53,4.27v23.39c0,3.09,1.36,4.21,3.53,4.21s3.53-1.11,3.53-4.21v-8h-3.09ZM113.9,48.53h20.63v2H113.9Zm116.54,0h20.63v2H230.44Z"/></svg>